<?xml version="1.0" standalone="no"?>
<!DOCTYPE svg PUBLIC "-//W3C//DTD SVG 20010904//EN"
 "http://www.w3.org/TR/2001/REC-SVG-20010904/DTD/svg10.dtd">
<svg version="1.0" xmlns="http://www.w3.org/2000/svg"
 width="516.000000pt" height="483.000000pt" viewBox="0 0 516.000000 483.000000"
 preserveAspectRatio="xMidYMid meet">

<g transform="translate(0.000000,483.000000) scale(0.100000,-0.100000)"
fill="#000000" stroke="none">
<path d="M2360 3375 l0 -675 145 0 145 0 0 675 0 675 -145 0 -145 0 0 -675z"/>
<path d="M1454 3471 c-2 -2 -4 -136 -4 -298 l0 -293 150 0 150 0 0 150 0 150
150 0 150 0 0 145 0 144 -296 3 c-163 2 -298 1 -300 -1z"/>
<path d="M2960 3325 l0 -145 150 0 149 0 3 -147 3 -148 148 -3 147 -3 0 296 0
295 -300 0 -300 0 0 -145z"/>
<path d="M1150 2420 l0 -450 145 0 145 0 0 450 0 450 -145 0 -145 0 0 -450z"/>
<path d="M3570 2420 l0 -450 145 0 145 0 0 450 0 450 -145 0 -145 0 0 -450z"/>
<path d="M1452 1663 l3 -298 298 -3 297 -2 0 150 0 150 -150 0 -150 0 0 150 0
150 -150 0 -150 0 2 -297z"/>
<path d="M3268 1943 c-1 -10 -2 -76 -3 -148 l0 -130 -153 -3 -153 -3 3 -147 3
-147 295 0 295 0 3 298 2 297 -145 0 c-131 0 -145 -2 -147 -17z"/>
<path d="M2054 1347 c-2 -7 -3 -74 -2 -148 l3 -134 450 0 450 0 0 145 0 145
-448 3 c-362 2 -449 0 -453 -11z"/>
</g>
</svg>
